<svg width="37" height="37" viewBox="0 0 37 37" fill="none" xmlns="http://www.w3.org/2000/svg">
<path d="M34.1094 3.46875H28.3281V2.89062C28.3281 1.29673 27.0314 0 25.4375 0C24.4888 0 23.6523 0.465969 23.125 1.17417C22.5977 0.465969 21.7612 0 20.8125 0C19.8638 0 19.0273 0.465969 18.5 1.17417C17.9727 0.465969 17.1362 0 16.1875 0C15.2388 0 14.4023 0.465969 13.875 1.17417C13.3477 0.465969 12.5112 0 11.5625 0C9.96861 0 8.67188 1.29673 8.67188 2.89062V3.46875H2.89062C1.29673 3.46875 0 4.76548 0 6.35938V24.8594C0 26.4533 1.29673 27.75 2.89062 27.75H9.82812V37H10.9844V27.75H22.5469V27.7205C22.7371 27.7396 22.9296 27.75 23.125 27.75H24.2812V26.5938H23.125C20.7709 26.5938 18.8214 24.8247 18.5358 22.5469H26.0156C26.9718 22.5469 27.75 23.325 27.75 24.2812V37H28.9062V27.75H34.1094C35.7033 27.75 37 26.4533 37 24.8594V6.35938C37 4.76548 35.7033 3.46875 34.1094 3.46875ZM25.4375 1.15625C26.3937 1.15625 27.1719 1.93441 27.1719 2.89062V5.20312C27.1719 6.15934 26.3937 6.9375 25.4375 6.9375C24.4813 6.9375 23.7031 6.15934 23.7031 5.20312V2.89062C23.7031 1.93441 24.4813 1.15625 25.4375 1.15625ZM20.8125 1.15625C21.7687 1.15625 22.5469 1.93441 22.5469 2.89062V5.20312C22.5469 6.15934 21.7687 6.9375 20.8125 6.9375C19.8563 6.9375 19.0781 6.15934 19.0781 5.20312V2.89062C19.0781 1.93441 19.8563 1.15625 20.8125 1.15625ZM16.1875 1.15625C17.1437 1.15625 17.9219 1.93441 17.9219 2.89062V5.20312C17.9219 6.15934 17.1437 6.9375 16.1875 6.9375C15.2313 6.9375 14.4531 6.15934 14.4531 5.20312V2.89062C14.4531 1.93441 15.2313 1.15625 16.1875 1.15625ZM9.82812 2.89062C9.82812 1.93441 10.6063 1.15625 11.5625 1.15625C12.5187 1.15625 13.2969 1.93441 13.2969 2.89062V5.20312C13.2969 6.15934 12.5187 6.9375 11.5625 6.9375C10.6063 6.9375 9.82812 6.15934 9.82812 5.20312V2.89062ZM35.8438 24.8594C35.8438 25.8156 35.0656 26.5938 34.1094 26.5938H28.9062V24.2812C28.9062 22.6874 27.6095 21.3906 26.0156 21.3906H17.9219C17.6028 21.3906 17.3438 21.649 17.3438 21.9688C17.3438 23.861 18.2618 25.5387 19.6713 26.5938H2.89062C1.93441 26.5938 1.15625 25.8156 1.15625 24.8594V6.35938C1.15625 5.40316 1.93441 4.625 2.89062 4.625H8.67188V5.20312C8.67188 6.79702 9.96861 8.09375 11.5625 8.09375C12.5112 8.09375 13.3477 7.62778 13.875 6.91958C14.4023 7.62778 15.2388 8.09375 16.1875 8.09375C17.1362 8.09375 17.9727 7.62778 18.5 6.91958C19.0273 7.62778 19.8638 8.09375 20.8125 8.09375C21.7612 8.09375 22.5977 7.62778 23.125 6.91958C23.6523 7.62778 24.4888 8.09375 25.4375 8.09375C27.0314 8.09375 28.3281 6.79702 28.3281 5.20312V4.625H34.1094C35.0656 4.625 35.8438 5.40316 35.8438 6.35938V24.8594Z" fill="black"/>
<path d="M13.875 9.82812H3.46875C3.14963 9.82812 2.89062 10.0865 2.89062 10.4062V21.3906C2.89062 21.7103 3.14963 21.9688 3.46875 21.9688H13.875C14.1941 21.9688 14.4531 21.7103 14.4531 21.3906V10.4062C14.4531 10.0865 14.1941 9.82812 13.875 9.82812ZM13.2969 10.9844V18.7486C12.7505 17.5692 11.8481 16.617 10.7202 16.0823C10.8832 15.7655 10.9844 15.4117 10.9844 15.0312V14.4531C10.9844 13.1778 9.94722 12.1406 8.67188 12.1406C7.39653 12.1406 6.35938 13.1778 6.35938 14.4531V15.0312C6.35938 15.4117 6.46055 15.7655 6.62358 16.0823C5.49566 16.617 4.5932 17.5698 4.04688 18.7486V10.9844H13.2969ZM9.82812 15.0312C9.82812 15.3764 9.67319 15.6828 9.43269 15.895C9.42748 15.899 9.42055 15.9019 9.41534 15.9065C9.26445 16.0343 9.01297 16.1875 8.67188 16.1875C8.33078 16.1875 8.0793 16.0343 7.92841 15.9065C7.9232 15.9019 7.91684 15.8996 7.91106 15.8955C7.67056 15.6828 7.51562 15.3764 7.51562 15.0312V14.4531C7.51562 13.8155 8.0342 13.2969 8.67188 13.2969C9.30955 13.2969 9.82812 13.8155 9.82812 14.4531V15.0312ZM7.44972 16.9865C7.61333 17.0894 7.79197 17.1668 7.97986 17.2264C8.00877 17.2356 8.03709 17.2455 8.06658 17.2536C8.15677 17.2778 8.24753 17.2969 8.34119 17.3108C8.35738 17.3131 8.37298 17.3137 8.38917 17.3154C8.48283 17.327 8.57533 17.3438 8.67188 17.3438C8.76842 17.3438 8.86092 17.327 8.95458 17.3154C8.97077 17.3137 8.98637 17.3131 9.00256 17.3108C9.09622 17.2969 9.18756 17.2784 9.27717 17.2536C9.30666 17.2455 9.33498 17.2356 9.36389 17.2264C9.55178 17.1668 9.72984 17.0894 9.89345 16.9865C11.4076 17.5328 12.4823 19.0313 12.6777 20.8125H4.66547C4.86087 19.0313 5.93619 17.5328 7.44972 16.9865Z" fill="black"/>
<path d="M9.25 23.125H4.04688V24.2812H9.25V23.125Z" fill="black"/>
<path d="M12.7188 23.125H10.4062V24.2812H12.7188V23.125Z" fill="black"/>
<path d="M23.125 9.82812H16.7656V10.9844H23.125V9.82812Z" fill="black"/>
<path d="M31.2188 9.82812H24.8594V10.9844H31.2188V9.82812Z" fill="black"/>
<path d="M19.6562 12.7188H16.7656V13.875H19.6562V12.7188Z" fill="black"/>
<path d="M23.7031 12.7188H21.3906V13.875H23.7031V12.7188Z" fill="black"/>
<path d="M19.6562 15.6094H16.7656V16.7656H19.6562V15.6094Z" fill="black"/>
<path d="M17.9219 18.5H16.7656V19.6562H17.9219V18.5Z" fill="black"/>
<path d="M20.2344 18.5H19.0781V19.6562H20.2344V18.5Z" fill="black"/>
<path d="M22.5469 18.5H21.3906V19.6562H22.5469V18.5Z" fill="black"/>
<path d="M28.9062 18.5H23.7031V19.6562H28.9062V18.5Z" fill="black"/>
<path d="M33.5312 18.5H30.0625V19.6562H33.5312V18.5Z" fill="black"/>
<path d="M33.5312 12.7188H29.4844C29.1653 12.7188 28.9062 12.9772 28.9062 13.2969V16.1875C28.9062 16.5072 29.1653 16.7656 29.4844 16.7656H33.5312C33.8504 16.7656 34.1094 16.5072 34.1094 16.1875V13.2969C34.1094 12.9772 33.8504 12.7188 33.5312 12.7188ZM32.9531 15.6094H30.0625V13.875H32.9531V15.6094Z" fill="black"/>
</svg>
