<svg width="36" height="30" viewBox="0 0 36 30" fill="none" xmlns="http://www.w3.org/2000/svg">
<path d="M33.2419 0H1.98883C1.46154 0.000582821 0.956012 0.210307 0.58316 0.58316C0.210307 0.956012 0.000582821 1.46154 0 1.98883V27.5596C0.000582821 28.0868 0.210307 28.5924 0.58316 28.9652C0.956012 29.3381 1.46154 29.5478 1.98883 29.5484H33.2419C33.7692 29.5478 34.2748 29.3381 34.6476 28.9652C35.0205 28.5924 35.2302 28.0868 35.2308 27.5596V1.98883C35.2302 1.46154 35.0205 0.956012 34.6476 0.58316C34.2748 0.210307 33.7692 0.000582821 33.2419 0ZM34.0943 27.5596C34.0941 27.7856 34.0042 28.0022 33.8444 28.1621C33.6846 28.3219 33.4679 28.4117 33.2419 28.4119H1.98883C1.76283 28.4117 1.54614 28.3219 1.38633 28.1621C1.22653 28.0022 1.13666 27.7856 1.13648 27.5596V4.54591H34.0943V27.5596ZM34.0943 3.40943H1.13648V1.98883C1.13666 1.76283 1.22653 1.54614 1.38633 1.38633C1.54614 1.22653 1.76283 1.13666 1.98883 1.13648H33.2419C33.4679 1.13666 33.6846 1.22653 33.8444 1.38633C34.0042 1.54614 34.0941 1.76283 34.0943 1.98883V3.40943Z" fill="black"/>
<path d="M2.27295 2.84119H2.84119C2.99189 2.84119 3.13643 2.78132 3.24299 2.67475C3.34956 2.56819 3.40943 2.42366 3.40943 2.27295C3.40943 2.12224 3.34956 1.97771 3.24299 1.87115C3.13643 1.76458 2.99189 1.70471 2.84119 1.70471H2.27295C2.12224 1.70471 1.97771 1.76458 1.87115 1.87115C1.76458 1.97771 1.70471 2.12224 1.70471 2.27295C1.70471 2.42366 1.76458 2.56819 1.87115 2.67475C1.97771 2.78132 2.12224 2.84119 2.27295 2.84119Z" fill="black"/>
<path d="M4.5459 2.84119H5.11414C5.26484 2.84119 5.40938 2.78132 5.51594 2.67475C5.62251 2.56819 5.68238 2.42366 5.68238 2.27295C5.68238 2.12224 5.62251 1.97771 5.51594 1.87115C5.40938 1.76458 5.26484 1.70471 5.11414 1.70471H4.5459C4.39519 1.70471 4.25066 1.76458 4.14409 1.87115C4.03753 1.97771 3.97766 2.12224 3.97766 2.27295C3.97766 2.42366 4.03753 2.56819 4.14409 2.67475C4.25066 2.78132 4.39519 2.84119 4.5459 2.84119V2.84119Z" fill="black"/>
<path d="M6.81886 2.84119H7.3871C7.53781 2.84119 7.68234 2.78132 7.78891 2.67475C7.89547 2.56819 7.95534 2.42366 7.95534 2.27295C7.95534 2.12224 7.89547 1.97771 7.78891 1.87115C7.68234 1.76458 7.53781 1.70471 7.3871 1.70471H6.81886C6.66816 1.70471 6.52362 1.76458 6.41706 1.87115C6.31049 1.97771 6.25063 2.12224 6.25063 2.27295C6.25063 2.42366 6.31049 2.56819 6.41706 2.67475C6.52362 2.78132 6.66816 2.84119 6.81886 2.84119V2.84119Z" fill="black"/>
<path d="M9.66004 9.66003C8.64856 9.66003 7.65979 9.95997 6.81878 10.5219C5.97776 11.0839 5.32227 11.8826 4.93519 12.8171C4.54811 13.7516 4.44684 14.7799 4.64417 15.7719C4.8415 16.7639 5.32857 17.6752 6.0438 18.3904C6.75902 19.1056 7.67028 19.5927 8.66232 19.7901C9.65437 19.9874 10.6827 19.8861 11.6171 19.499C12.5516 19.112 13.3504 18.4565 13.9123 17.6154C14.4742 16.7744 14.7742 15.7857 14.7742 14.7742C14.7726 13.4183 14.2333 12.1184 13.2746 11.1597C12.3158 10.2009 11.0159 9.66159 9.66004 9.66003V9.66003ZM9.66004 18.7518C8.84891 18.7523 8.05721 18.5037 7.39206 18.0394C7.42887 17.4629 7.68382 16.9221 8.10511 16.5268C8.52639 16.1316 9.08238 15.9116 9.66004 15.9116C10.2377 15.9116 10.7937 16.1316 11.215 16.5268C11.6363 16.9221 11.8912 17.4629 11.928 18.0394C11.2629 18.5037 10.4712 18.7523 9.66004 18.7518V18.7518ZM8.52357 13.6377C8.52357 13.4129 8.59022 13.1932 8.7151 13.0063C8.83998 12.8194 9.01747 12.6738 9.22513 12.5877C9.4328 12.5017 9.66131 12.4792 9.88176 12.5231C10.1022 12.5669 10.3047 12.6752 10.4637 12.8341C10.6226 12.993 10.7308 13.1955 10.7747 13.416C10.8185 13.6364 10.796 13.8649 10.71 14.0726C10.624 14.2803 10.4783 14.4578 10.2914 14.5826C10.1045 14.7075 9.88482 14.7742 9.66004 14.7742C9.35875 14.7738 9.06992 14.6539 8.85687 14.4409C8.64382 14.2278 8.52396 13.939 8.52357 13.6377V13.6377ZM12.8905 17.0912C12.7227 16.5943 12.4422 16.1431 12.0708 15.7729C11.8447 15.5474 11.5884 15.3542 11.3094 15.1989C11.6151 14.8764 11.8196 14.4712 11.8975 14.0337C11.9754 13.5961 11.9233 13.1453 11.7476 12.737C11.572 12.3287 11.2805 11.9809 10.9092 11.7366C10.538 11.4922 10.1032 11.3621 9.65875 11.3623C9.21429 11.3625 8.77965 11.493 8.40858 11.7377C8.03752 11.9823 7.74633 12.3304 7.57103 12.7388C7.39573 13.1472 7.34403 13.5981 7.4223 14.0356C7.50058 14.4731 7.70541 14.8781 8.01144 15.2004C7.26813 15.6132 6.70484 16.2876 6.43103 17.0926C6.0037 16.4984 5.74858 15.7979 5.69375 15.0681C5.63893 14.3383 5.78651 13.6075 6.12027 12.9561C6.45403 12.3048 6.96102 11.7582 7.58544 11.3764C8.20986 10.9947 8.9275 10.7926 9.65937 10.7924C10.3912 10.7923 11.109 10.994 11.7336 11.3755C12.3581 11.757 12.8654 12.3034 13.1994 12.9546C13.5335 13.6058 13.6814 14.3365 13.6269 15.0663C13.5724 15.7962 13.3175 16.4968 12.8905 17.0912V17.0912Z" fill="black"/>
<path d="M11.933 20.4567H7.3871C7.23639 20.4567 7.09186 20.5165 6.9853 20.6231C6.87873 20.7297 6.81886 20.8742 6.81886 21.0249C6.81886 21.1756 6.87873 21.3201 6.9853 21.4267C7.09186 21.5333 7.23639 21.5931 7.3871 21.5931H11.933C12.0837 21.5931 12.2282 21.5333 12.3348 21.4267C12.4414 21.3201 12.5012 21.1756 12.5012 21.0249C12.5012 20.8742 12.4414 20.7297 12.3348 20.6231C12.2282 20.5165 12.0837 20.4567 11.933 20.4567Z" fill="black"/>
<path d="M10.7965 22.1613H8.52358C8.37287 22.1613 8.22834 22.2211 8.12177 22.3277C8.01521 22.4343 7.95534 22.5788 7.95534 22.7295C7.95534 22.8802 8.01521 23.0247 8.12177 23.1313C8.22834 23.2379 8.37287 23.2977 8.52358 23.2977H10.7965C10.9472 23.2977 11.0918 23.2379 11.1983 23.1313C11.3049 23.0247 11.3648 22.8802 11.3648 22.7295C11.3648 22.5788 11.3049 22.4343 11.1983 22.3277C11.0918 22.2211 10.9472 22.1613 10.7965 22.1613Z" fill="black"/>
<path d="M31.8213 11.933H18.1836C18.0329 11.933 17.8884 11.9929 17.7818 12.0994C17.6753 12.206 17.6154 12.3505 17.6154 12.5012C17.6154 12.6519 17.6753 12.7965 17.7818 12.903C17.8884 13.0096 18.0329 13.0695 18.1836 13.0695H31.8213C31.972 13.0695 32.1166 13.0096 32.2231 12.903C32.3297 12.7965 32.3896 12.6519 32.3896 12.5012C32.3896 12.3505 32.3297 12.206 32.2231 12.0994C32.1166 11.9929 31.972 11.933 31.8213 11.933Z" fill="black"/>
<path d="M18.1836 15.3424H26.139C26.2897 15.3424 26.4342 15.2825 26.5408 15.176C26.6473 15.0694 26.7072 14.9249 26.7072 14.7742C26.7072 14.6235 26.6473 14.4789 26.5408 14.3724C26.4342 14.2658 26.2897 14.2059 26.139 14.2059H18.1836C18.0329 14.2059 17.8884 14.2658 17.7818 14.3724C17.6753 14.4789 17.6154 14.6235 17.6154 14.7742C17.6154 14.9249 17.6753 15.0694 17.7818 15.176C17.8884 15.2825 18.0329 15.3424 18.1836 15.3424Z" fill="black"/>
<path d="M28.9802 15.3424C29.1309 15.3424 29.2754 15.2825 29.382 15.176C29.4885 15.0694 29.5484 14.9249 29.5484 14.7742C29.5484 14.6235 29.4885 14.4789 29.382 14.3724C29.2754 14.2658 29.1309 14.2059 28.9802 14.2059H27.8437C27.693 14.2059 27.5484 14.2658 27.4419 14.3724C27.3353 14.4789 27.2755 14.6235 27.2755 14.7742C27.2755 14.9249 27.3353 15.0694 27.4419 15.176C27.5484 15.2825 27.693 15.3424 27.8437 15.3424H28.9802Z" fill="black"/>
<path d="M31.8213 16.4789H18.1836C18.0329 16.4789 17.8884 16.5387 17.7818 16.6453C17.6753 16.7519 17.6154 16.8964 17.6154 17.0471V19.8883C17.6154 20.039 17.6753 20.1836 17.7818 20.2901C17.8884 20.3967 18.0329 20.4565 18.1836 20.4565H31.8213C31.972 20.4565 32.1166 20.3967 32.2231 20.2901C32.3297 20.1836 32.3896 20.039 32.3896 19.8883V17.0471C32.3896 16.8964 32.3297 16.7519 32.2231 16.6453C32.1166 16.5387 31.972 16.4789 31.8213 16.4789ZM31.2531 19.3201H18.7519V17.6154H31.2531V19.3201Z" fill="black"/>
</svg>
