<svg width="50" height="48" viewBox="0 0 50 48" fill="none" xmlns="http://www.w3.org/2000/svg">
<path d="M39.4191 4.8V5.3H39.9191H44.3546C47.0113 5.3 49.1771 7.32349 49.1771 9.6V11.2C49.1771 11.7765 48.6746 12.3 47.9029 12.3H1.77418C1.00249 12.3 0.5 11.7765 0.5 11.2V9.6C0.5 7.32349 2.66579 5.3 5.32255 5.3H9.75801H10.258V4.8V3.2C10.258 1.72349 11.5367 0.5 13.3064 0.5C15.076 0.5 16.3547 1.72349 16.3547 3.2V4.8V5.3H16.8547H32.8224H33.3224V4.8V3.2C33.3224 1.72349 34.6011 0.5 36.3708 0.5C38.1404 0.5 39.4191 1.72349 39.4191 3.2V4.8Z" stroke="black"/>
<path d="M1.77418 18.1001H47.9029C48.6746 18.1001 49.1771 18.6236 49.1771 19.2001V43.2001C49.1771 45.4766 47.0113 47.5001 44.3546 47.5001H5.32255C2.66578 47.5001 0.5 45.4766 0.5 43.2001V19.2001C0.5 18.6236 1.00249 18.1001 1.77418 18.1001ZM11.1431 32.8001C11.1431 39.621 17.2909 45.2001 24.8386 45.2001C32.3834 45.2001 38.5341 39.7236 38.5341 32.8001C38.5341 25.9766 32.2725 20.4001 24.8386 20.4001C17.4075 20.4001 11.1431 25.874 11.1431 32.8001Z" stroke="black"/>
<path d="M25.6692 32.2999V32.5266L25.8397 32.676L29.7174 36.073C29.8278 36.1745 29.8272 36.3278 29.7154 36.4286L29.0501 37.0286C28.9077 37.157 28.6424 37.157 28.5 37.0286L24.2863 33.2286L24.2505 33.1963L24.2091 33.1714C24.0569 33.0799 24.0079 32.9626 24.0079 32.7999V27.1999C24.0079 27.1817 24.0247 27.1072 24.12 27.0212C24.2118 26.9384 24.3185 26.8999 24.395 26.8999H25.2821C25.3587 26.8999 25.4653 26.9384 25.5571 27.0212C25.6524 27.1072 25.6692 27.1817 25.6692 27.1999V32.2999Z" stroke="black"/>
</svg>
