<svg width="63" height="52" viewBox="0 0 63 52" fill="none" xmlns="http://www.w3.org/2000/svg">
<path d="M58.2397 39.3889H58.6576L58.7317 38.9776L58.2397 38.8889C58.7317 38.9776 58.7318 38.9773 58.7318 38.977L58.732 38.9763L58.7323 38.9746L58.733 38.9702L58.7351 38.9575C58.7368 38.9472 58.7389 38.9334 58.7413 38.9161C58.7461 38.8817 58.7521 38.8335 58.758 38.7727C58.7698 38.651 58.781 38.4782 58.781 38.2622C58.781 37.8302 58.7361 37.2236 58.56 36.5058C58.2062 35.0642 57.3277 33.1941 55.2617 31.4002C53.2041 29.6137 51.0428 28.7776 49.396 28.3884C48.5725 28.1938 47.876 28.1105 47.382 28.0759C47.1349 28.0586 46.9382 28.0534 46.8011 28.0527C46.7326 28.0524 46.6789 28.0531 46.6413 28.054C46.6225 28.0545 46.6078 28.055 46.5971 28.0554L46.5843 28.0559L46.5803 28.0561L46.5789 28.0562L46.5783 28.0562C46.5781 28.0562 46.5779 28.0562 46.6033 28.5556L46.5779 28.0562L46.1033 28.0804V28.5556V38.8889V39.3889H46.6033H58.2397ZM31.5 37.5556C31.5 30.4604 38.3373 24.5 47 24.5C55.6599 24.5 62.5 30.5691 62.5 37.5556C62.5 44.5372 55.6656 50.5 47 50.5C38.3316 50.5 31.5 44.6459 31.5 37.5556Z" stroke="black"/>
<path d="M35.5875 21.4993L35.5875 21.4993C38.7266 17.5079 39.3512 11.6703 37.3494 7.37093L37.3475 7.36668C35.366 3.00431 30.6331 0.394397 24.9272 0.503267L35.5875 21.4993ZM35.5875 21.4993L35.5823 21.5061M35.5875 21.4993L35.5823 21.5061M35.5823 21.5061C34.7659 22.5815 33.8582 23.4324 32.8816 24.3478C32.728 24.4918 32.5727 24.6373 32.4158 24.7857C31.2687 25.8698 30.0648 27.0744 28.9271 28.7986C27.0558 31.556 25.8491 35.2294 25.8491 38.3579C25.8491 42.8617 27.7308 47.1137 30.7918 50.5438L30.7987 50.5515L30.8059 50.559C30.947 50.7045 30.9671 50.8983 30.8466 51.1055C30.7218 51.3199 30.4607 51.5 30.1236 51.5H7.86712C2.81955 51.5 -0.282182 47.2975 0.67362 43.397L0.676281 43.3861L0.678454 43.3752C1.16274 40.9308 2.86369 39.044 5.13643 37.5147C7.40968 35.9851 10.1913 34.856 12.728 33.906L12.7281 33.9062L12.7401 33.9013C12.9626 33.8114 13.198 33.719 13.442 33.6232C14.3809 33.2547 15.4482 32.8358 16.4051 32.3106C17.6095 31.6495 18.7406 30.7687 19.2619 29.4922C19.8534 28.0918 19.6178 26.7053 19.0016 25.4952C18.3898 24.2937 17.3905 23.2355 16.3809 22.4257C11.8943 18.7845 11.0032 12.8823 13.0147 8.02201L13.0148 8.02206M35.5823 21.5061L13.0148 8.02206M13.0148 8.02206L13.0188 8.01167M13.0148 8.02206L13.0188 8.01167M13.0188 8.01167C14.7545 3.53822 19.364 0.611966 24.9269 0.503271L13.0188 8.01167Z" stroke="black"/>
</svg>
