<svg width="29" height="36" viewBox="0 0 29 36" fill="none" xmlns="http://www.w3.org/2000/svg">
<path d="M21.2852 9.26508L23.3915 1.47804C23.4385 1.30435 23.4449 1.12213 23.4104 0.945525C23.3758 0.768921 23.3011 0.602686 23.1922 0.459724C23.0832 0.316763 22.9428 0.200922 22.782 0.121193C22.6212 0.0414644 22.4442 -6.37187e-06 22.2649 7.34323e-10H6.73545C6.55605 1.19736e-05 6.37907 0.0415023 6.21825 0.12125C6.05742 0.200998 5.91708 0.316859 5.80811 0.459838C5.69913 0.602817 5.62447 0.769068 5.58991 0.945687C5.55534 1.12231 5.56181 1.30454 5.60881 1.47824L7.71602 9.2644C5.38755 10.5031 3.43913 12.3545 2.07979 14.6199C0.720448 16.8853 0.00147502 19.4793 0 22.1236V34.8287C6.25147e-06 35.1394 0.123002 35.4373 0.341932 35.6569C0.560862 35.8766 0.857793 36 1.16741 36H27.8326C28.1422 36 28.4391 35.8766 28.6581 35.6569C28.877 35.4373 29 35.1394 29 34.8287V22.1236C28.9985 19.4796 28.2797 16.8858 26.9206 14.6205C25.5615 12.3552 23.6134 10.5039 21.2852 9.26508ZM26.6652 33.6574H2.33484V22.1236C2.33598 19.839 2.97545 17.6005 4.18067 15.6621C5.38589 13.7237 7.10858 12.1632 9.1532 11.1576H14.5086C14.8182 11.1576 15.1152 11.0342 15.3341 10.8146C15.553 10.5949 15.676 10.297 15.676 9.98633C15.676 9.67569 15.553 9.37776 15.3341 9.1581C15.1152 8.93844 14.8182 8.81504 14.5086 8.81504H10.0138L8.26211 2.34259H20.7384L18.9877 8.81504H18.9613C18.6516 8.81504 18.3547 8.93844 18.1358 9.1581C17.9168 9.37776 17.7938 9.67569 17.7938 9.98633C17.7938 10.297 17.9168 10.5949 18.1358 10.8146C18.3547 11.0342 18.6516 11.1576 18.9613 11.1576H19.8467C21.8913 12.1632 23.614 13.7237 24.8193 15.6621C26.0245 17.6005 26.664 19.839 26.6652 22.1236V33.6574Z" fill="#2D3E50"/>
<path d="M17.9204 22.5535C17.557 22.2614 17.1541 22.0135 16.7217 21.816C16.2342 21.5903 15.7323 21.3918 15.2188 21.2214C14.8621 21.1081 14.5578 21.0033 14.3059 20.9071C14.0848 20.8255 13.8719 20.7261 13.6697 20.6102C13.5146 20.5246 13.3848 20.4052 13.2916 20.2627C13.2081 20.1196 13.1668 19.9589 13.1718 19.7966C13.1685 19.658 13.2021 19.5207 13.2696 19.3966C13.337 19.2726 13.4364 19.1655 13.5591 19.0847C13.9419 18.8742 14.3869 18.7794 14.8314 18.8136C15.399 18.8114 15.9651 18.8682 16.5188 18.983C17.001 19.0808 17.473 19.217 17.9295 19.3898L18.5013 17.356C18.1459 17.2165 17.779 17.1031 17.404 17.017C16.8622 16.8915 16.3102 16.8064 15.7535 16.7627V15H13.43V16.8305C12.9407 16.9049 12.4675 17.0508 12.0285 17.2627C11.6598 17.4417 11.3338 17.6866 11.0695 17.983C10.8254 18.2623 10.6409 18.5815 10.5255 18.9237C10.408 19.2722 10.3489 19.6352 10.3503 20C10.3327 20.4033 10.4178 20.8048 10.5987 21.1726C10.7796 21.5404 11.0513 21.8643 11.3923 22.1186C11.7129 22.3602 12.0662 22.5624 12.4433 22.7203C12.8307 22.8843 13.2272 23.034 13.6328 23.1695C14.0507 23.3052 14.4195 23.4323 14.7392 23.5508C15.0153 23.6494 15.2808 23.7714 15.5323 23.9153C15.7213 24.0222 15.8844 24.1635 16.0117 24.3305C16.1259 24.4947 16.1837 24.6866 16.1776 24.8814C16.1851 25.0341 16.1511 25.1861 16.0787 25.3237C16.0063 25.4613 15.8977 25.5801 15.7628 25.6695C15.4862 25.856 14.9729 25.9492 14.2229 25.9491C13.5838 25.9524 12.9474 25.8725 12.3327 25.7119C11.8042 25.5771 11.2891 25.4014 10.7929 25.1865L10 27.1356C10.4056 27.3113 10.8211 27.4669 11.2447 27.6017C11.9522 27.815 12.6867 27.9432 13.43 27.9831V30H15.7535V27.9322C16.2835 27.8633 16.7976 27.7145 17.2749 27.4918C17.6573 27.3099 17.9984 27.0626 18.28 26.7632C18.5308 26.4933 18.719 26.1791 18.8332 25.84C18.9428 25.5135 18.9987 25.1738 18.9992 24.8321C19.0099 24.3832 18.9123 23.9377 18.7133 23.5276C18.524 23.1566 18.2542 22.8252 17.9204 22.5535V22.5535Z" fill="#1D75B8"/>
</svg>
