<svg width="55" height="63" viewBox="0 0 55 63" fill="none" xmlns="http://www.w3.org/2000/svg">
<path d="M19.5254 43.6707C20.5088 44.3364 21.771 45.1908 23.2745 45.7885L11.7711 61.9463L8.92928 54.4233L8.80715 54.1H8.46154H0.995325L10.9752 40.6889C12.5479 41.5573 14.1907 41.8666 15.4985 42.1128C15.9306 42.1941 16.3261 42.2686 16.6704 42.354C16.9431 42.4217 17.2503 42.4895 17.5257 42.5408C17.7275 42.5784 17.9364 42.6118 18.1059 42.6251C18.2007 42.6816 18.3316 42.7697 18.4754 42.8768C18.6639 43.0171 18.8417 43.1654 18.9506 43.2736L18.9857 43.3084L19.0269 43.3357C19.1841 43.4397 19.3503 43.5522 19.5254 43.6707ZM35.8409 43.3357L35.8821 43.3084L35.9172 43.2736C36.0261 43.1654 36.2039 43.0171 36.3923 42.8768C36.5359 42.77 36.6665 42.682 36.7613 42.6255C36.9378 42.6127 37.1705 42.5802 37.3983 42.5425C37.7053 42.4917 38.0493 42.4236 38.3296 42.354C38.6739 42.2686 39.0694 42.1941 39.5015 42.1128C40.8093 41.8666 42.4521 41.5573 44.0248 40.6889L54.0047 54.1H46.5385H46.1928L46.0707 54.4233L43.2275 61.95L31.7245 45.9143C33.0273 45.3721 34.1124 44.5799 34.9916 43.938C35.2998 43.7131 35.5827 43.5065 35.8409 43.3357ZM43.4324 26.4522L43.4323 26.4521L43.4287 26.4614C43.0546 27.4162 42.9012 28.5272 42.7584 29.5616C42.7146 29.8789 42.6718 30.1889 42.6239 30.485C42.4103 31.8063 42.0978 32.8979 41.3077 33.6261L41.3009 33.6324L41.2944 33.6389C40.5567 34.3712 39.4456 34.6824 38.1081 34.9119C37.8175 34.9617 37.515 35.0077 37.2063 35.0546C36.1545 35.2143 35.0304 35.385 34.0627 35.7586L34.0627 35.7585L34.0536 35.7622C33.4383 36.0137 32.856 36.3844 32.3032 36.7803C31.996 37.0003 31.6717 37.2481 31.3541 37.4907C31.1206 37.6691 30.8907 37.8448 30.6739 38.0045C29.5846 38.8074 28.5781 39.4 27.5 39.4C26.4219 39.4 25.4154 38.8074 24.3261 38.0045C24.1093 37.8448 23.8794 37.6691 23.6459 37.4907C23.3284 37.2481 23.0041 37.0003 22.6968 36.7803C22.144 36.3844 21.5617 36.0137 20.9464 35.7622L20.9464 35.7621L20.9373 35.7586C19.9766 35.3877 18.8592 35.2356 17.8173 35.0938C17.4976 35.0503 17.1849 35.0077 16.8861 34.9601C15.5541 34.7479 14.4527 34.4371 13.7185 33.6522L13.7122 33.6454L13.7056 33.6389C12.9687 32.9073 12.6557 31.8061 12.4247 30.4791C12.3745 30.1911 12.3283 29.8911 12.2811 29.5847C12.1202 28.5404 11.948 27.423 11.5713 26.4614L11.5714 26.4613L11.5676 26.4522C11.314 25.8406 10.9402 25.2621 10.5414 24.7133C10.3198 24.4083 10.0701 24.0863 9.82567 23.771C9.64593 23.5391 9.46901 23.3109 9.30816 23.0959C8.49895 22.0138 7.90385 21.0165 7.90385 19.95C7.90385 18.8835 8.49895 17.8862 9.30816 16.8041C9.46901 16.5891 9.64593 16.3609 9.82567 16.129C10.0701 15.8137 10.3198 15.4917 10.5414 15.1867C10.9402 14.6379 11.314 14.0594 11.5676 13.4478L11.5677 13.4479L11.5713 13.4386C11.9454 12.4838 12.0988 11.3729 12.2416 10.3384C12.2854 10.0211 12.3282 9.7111 12.3761 9.41496C12.5897 8.09367 12.9022 7.00215 13.6923 6.27388L13.6991 6.26761L13.7056 6.26109C14.4433 5.52876 15.5544 5.21761 16.8919 4.98811C17.1825 4.93826 17.485 4.89232 17.7937 4.84544C18.8456 4.68572 19.9696 4.51503 20.9373 4.14145L20.9373 4.14154L20.9464 4.13783C21.5617 3.88633 22.144 3.51561 22.6968 3.1197C23.004 2.8997 23.3283 2.65192 23.6459 2.4093C23.8794 2.23087 24.1093 2.05522 24.3261 1.89546C25.4154 1.09263 26.4219 0.5 27.5 0.5C28.5781 0.5 29.5846 1.09263 30.6739 1.89546C30.8907 2.05522 31.1206 2.23087 31.3541 2.4093C31.6717 2.65192 31.996 2.8997 32.3032 3.1197C32.856 3.51561 33.4383 3.88633 34.0536 4.13783L34.0536 4.13791L34.0627 4.14145C35.0234 4.51233 36.1408 4.66441 37.1827 4.80619C37.5025 4.84971 37.8151 4.89226 38.1139 4.93987C39.4459 5.15209 40.5473 5.46286 41.2815 6.24781L41.2878 6.25457L41.2944 6.26109C42.0313 6.99267 42.3443 8.09387 42.5753 9.42092C42.6255 9.70891 42.6717 10.009 42.7189 10.3153C42.8798 11.3596 43.052 12.477 43.4287 13.4386L43.4286 13.4387L43.4324 13.4478C43.686 14.0594 44.0598 14.6379 44.4586 15.1867C44.6802 15.4917 44.9299 15.8137 45.1743 16.129C45.3541 16.3609 45.531 16.5891 45.6918 16.8041C46.5011 17.8862 47.0962 18.8835 47.0962 19.95C47.0962 21.0165 46.5011 22.0138 45.6918 23.0959C45.531 23.3109 45.3541 23.5391 45.1743 23.771C44.9299 24.0863 44.6802 24.4083 44.4586 24.7133C44.0598 25.2621 43.686 25.8406 43.4324 26.4522ZM20.5962 19.95C20.5962 16.1608 23.6741 13.1 27.5 13.1C31.3259 13.1 34.4038 16.1608 34.4038 19.95C34.4038 23.7392 31.3259 26.8 27.5 26.8C23.6741 26.8 20.5962 23.7392 20.5962 19.95ZM41.75 19.95C41.75 12.0579 35.441 5.8 27.5 5.8C19.559 5.8 13.25 12.0579 13.25 19.95C13.25 27.8421 19.559 34.1 27.5 34.1C35.441 34.1 41.75 27.8421 41.75 19.95Z" stroke="black"/>
</svg>
