<svg width="38" height="31" viewBox="0 0 38 31" fill="none" xmlns="http://www.w3.org/2000/svg">
<path d="M2.96875 22.5625H17.8125V21.375H14.2589C14.4424 11.245 19.3242 1.1875 28.5 1.1875H32.6562C33.6383 1.1875 34.4375 1.98669 34.4375 2.96875V19.5938C34.4375 20.5758 33.6383 21.375 32.6562 21.375H21.375V22.5625H32.6562C34.2932 22.5625 35.625 21.2307 35.625 19.5938V16.508C36.3951 17.7893 36.8125 19.2589 36.8125 20.7812C36.8125 25.365 33.0837 29.0938 28.5 29.0938C23.9163 29.0938 20.1875 25.365 20.1875 20.7812C20.1875 19.301 20.5752 17.8843 21.3055 16.6268L22.0311 18.0785L23.0933 17.5471L21.9058 15.1721C21.8055 14.9708 21.6 14.8438 21.375 14.8438H18.4062V16.0312H20.2789C19.4435 17.4693 19 19.0891 19 20.7812C19 26.0193 23.2619 30.2812 28.5 30.2812C33.7381 30.2812 38 26.0193 38 20.7812C38 18.4597 37.1539 16.2456 35.625 14.5095V2.96875C35.625 1.33178 34.2932 0 32.6562 0H2.96875C1.33178 0 0 1.33178 0 2.96875V19.5938C0 21.2307 1.33178 22.5625 2.96875 22.5625ZM23.1183 1.1875C16.647 4.24828 13.2228 12.7882 13.0714 21.375H10.694C10.8312 11.5383 14.3705 1.1875 21.9688 1.1875H23.1183ZM1.1875 2.96875C1.1875 1.98669 1.98669 1.1875 2.96875 1.1875H17.6017C13.2086 3.68125 9.63122 10.1893 9.50772 21.375H2.96875C1.98669 21.375 1.1875 20.5758 1.1875 19.5938V2.96875Z" fill="black"/>
<path d="M26.125 13.6562H24.9375V20.1875H26.125V13.6562Z" fill="black"/>
<path d="M28.5 13.6562H27.3125V20.1875H28.5V13.6562Z" fill="black"/>
<path d="M30.875 13.6562H29.6875V20.1875H30.875V13.6562Z" fill="black"/>
<path d="M33.25 13.6562H32.0625V20.1875H33.25V13.6562Z" fill="black"/>
</svg>
