<svg width="57" height="50" viewBox="0 0 57 50" fill="none" xmlns="http://www.w3.org/2000/svg">
<path d="M31.8081 30.09L31.7818 30.1183L31.7603 30.1503C31.744 30.1745 31.7272 30.1993 31.7101 30.2247C31.1289 31.0856 30.1 32.6095 30.1 35.0835V38.0668C30.1 42.2852 33.2532 44.7721 36.225 44.7721H39.15C40.8582 44.7721 42.4538 44.1218 43.6763 42.8251L44.5 41.9514V44.2721C44.5 47.1267 42.2215 49.5 39.6 49.5H31.5H10.8C9.44523 49.5 8.22748 49.0589 7.35122 48.2091C6.47914 47.3633 5.9 46.0689 5.9 44.2721V43.7721H5.4H3.6C1.8785 43.7721 0.5 42.3535 0.5 40.4535C0.5 38.6623 1.88826 37.1348 3.6 37.1348H5.4H5.9V36.6348V28.8783V28.3783H5.4H3.6C1.8785 28.3783 0.5 26.9597 0.5 25.0597C0.5 23.1597 1.8785 21.741 3.6 21.741H5.4H5.9V21.241V13.4845V12.9845H5.4H3.6C1.8785 12.9845 0.5 11.5659 0.5 9.66587C0.5 7.74508 1.89768 6.22792 3.6 6.22792H5.4H5.9V5.72792C5.9 4.43589 6.46125 3.12117 7.37172 2.12782C8.28124 1.1355 9.50457 0.5 10.8 0.5H39.6C42.2215 0.5 44.5 2.87326 44.5 5.72792V15.6325C44.5 15.7785 44.4416 16.0378 44.3255 16.3252C44.2099 16.6114 44.0694 16.8453 43.9612 16.9601L43.9581 16.9635L31.8081 30.09ZM33.3 16.8484C34.616 16.8484 35.6 15.7611 35.6 14.4391V12.5298C35.6 11.2079 34.616 10.1205 33.3 10.1205H15.3C13.984 10.1205 13 11.2079 13 12.5298V14.4391C13 15.7611 13.984 16.8484 15.3 16.8484H33.3ZM25.2 39.9988C26.516 39.9988 27.5 38.9114 27.5 37.5895V35.6802C27.5 34.3582 26.516 33.2709 25.2 33.2709H15.3C13.984 33.2709 13 34.3582 13 35.6802V37.5895C13 38.9114 13.984 39.9988 15.3 39.9988H25.2ZM27.9 28.4236C29.216 28.4236 30.2 27.3363 30.2 26.0143V24.105C30.2 22.7831 29.216 21.6957 27.9 21.6957H15.3C13.984 21.6957 13 22.7831 13 24.105V26.0143C13 27.3363 13.984 28.4236 15.3 28.4236H27.9Z" stroke="black"/>
<path d="M34.5 37.5V34.5189L51.9841 19.9094C52.3114 19.6458 52.7681 19.5 53.2467 19.5C53.7267 19.5 54.1846 19.6466 54.5122 19.9116L55.9485 21.0737C56.3623 21.4085 56.5103 21.7632 56.4994 22.0613C56.4886 22.359 56.3151 22.7229 55.8305 23.0659L55.8165 23.0758L55.8033 23.0865L38.2397 37.4122C38.2255 37.4159 38.2121 37.4197 38.1997 37.4235C38.1417 37.4411 38.0875 37.463 38.0548 37.4763L38.0496 37.4784C38.0207 37.4901 38.005 37.4963 37.9944 37.5H34.5Z" stroke="black"/>
</svg>
