<svg width="34" height="32" viewBox="0 0 34 32" fill="none" xmlns="http://www.w3.org/2000/svg">
<path d="M26.1565 8.05652H20.4522C19.5457 8.05652 18.7957 7.30647 18.7957 6.4V0.765217C18.7957 0.623969 18.9196 0.5 19.0609 0.5C19.1149 0.5 19.1506 0.501876 19.3011 0.599102L26.3239 7.55314C26.4199 7.70192 26.4217 7.73753 26.4217 7.7913C26.4217 7.93255 26.2978 8.05652 26.1565 8.05652Z" stroke="black"/>
<path d="M32.6899 16.1449L32.7035 16.1584L32.7181 16.1709C32.8614 16.2937 32.9087 16.4203 32.9087 16.5391C32.9087 16.6656 32.8538 16.8441 32.678 17.0496L24.5017 25.1572C24.4918 25.1615 24.4825 25.1657 24.4741 25.1696H23.1087V23.6522C23.1087 23.6516 23.1087 23.6511 23.1087 23.6506L31.2256 15.5337C31.5371 15.2754 31.8583 15.3132 32.0638 15.5188L32.6899 16.1449ZM23.1102 25.4652C23.1102 25.4652 23.1101 25.4646 23.11 25.4632L23.1102 25.4652Z" stroke="black"/>
<path d="M26.3598 29.339C26.1259 30.5486 24.9531 31.5 23.6522 31.5H3.2C1.73701 31.5 0.5 30.263 0.5 28.8V3.2C0.5 1.73701 1.73701 0.5 3.2 0.5H13.9826C14.3537 0.5 14.5957 0.783812 14.5957 1.04348V8.55652C14.5957 10.5647 16.2038 12.2565 18.2957 12.2565H25.9478C26.2282 12.2565 26.4913 12.5196 26.4913 12.8V14.1913C26.4913 14.3069 26.4284 14.4644 26.2899 14.603L19.7083 21.1845C19.0592 21.6706 18.9087 22.4128 18.9087 23.0261V26.7826C18.9087 28.1718 20.0369 29.3 21.4261 29.3H22.6087H25.113H26.3295C26.3348 29.3047 26.3405 29.3106 26.346 29.3176C26.3487 29.3211 26.3511 29.3245 26.3533 29.3278C26.3555 29.3313 26.3575 29.3346 26.3592 29.3378C26.3594 29.3382 26.3596 29.3386 26.3598 29.339ZM15.5957 23.4435V22.9435H15.5261V22.4C15.5261 21.5895 14.9065 20.8565 13.9826 20.8565H5.35652C4.52386 20.8565 3.81304 21.5673 3.81304 22.4V23.4435C3.81304 24.254 4.43263 24.987 5.35652 24.987H14.0522C14.8848 24.987 15.5957 24.2761 15.5957 23.4435ZM17.7522 17.0435V16.5435H17.6826V16C17.6826 15.1895 17.063 14.4565 16.1391 14.4565H5.35652C4.52386 14.4565 3.81304 15.1673 3.81304 16V17.0435C3.81304 17.854 4.43263 18.587 5.35652 18.587H16.2087C17.0414 18.587 17.7522 17.8761 17.7522 17.0435ZM5.35652 8.05652C4.52386 8.05652 3.81304 8.76733 3.81304 9.6V10.6435C3.81304 11.454 4.43263 12.187 5.35652 12.187H9.66957C10.5022 12.187 11.213 11.4761 11.213 10.6435V9.6C11.213 8.78951 10.5935 8.05652 9.66957 8.05652H5.35652Z" stroke="black"/>
</svg>
