<svg width="63" height="61" viewBox="0 0 63 61" fill="none" xmlns="http://www.w3.org/2000/svg">
<path d="M57.3077 50.2694H5.69231C3.11154 50.2694 1 48.1579 1 45.5771V36.1925C1 31.0309 5.22308 26.8079 10.3846 26.8079H52.6154C57.7769 26.8079 62 31.0309 62 36.1925V45.5771C62 48.1579 59.8885 50.2694 57.3077 50.2694Z" stroke="black" stroke-width="2" stroke-miterlimit="10" stroke-linecap="round" stroke-linejoin="round"/>
<path d="M54.9615 26.8076H8.03847L12.7308 16.0153C14.1385 12.7307 17.4231 10.3845 21.1769 10.3845H41.5885C45.3423 10.3845 48.6269 12.7307 50.2692 16.0153L54.9615 26.8076Z" stroke="black" stroke-width="2" stroke-miterlimit="10" stroke-linecap="round" stroke-linejoin="round"/>
<path d="M17.4231 50.269H3.34616V54.9614C3.34616 57.5421 5.4577 59.6537 8.03847 59.6537H12.7308C15.3115 59.6537 17.4231 57.5421 17.4231 54.9614V50.269Z" stroke="black" stroke-width="2" stroke-miterlimit="10" stroke-linecap="round" stroke-linejoin="round"/>
<path d="M59.6538 50.269H45.5769V54.9614C45.5769 57.5421 47.6884 59.6537 50.2692 59.6537H54.9615C57.5423 59.6537 59.6538 57.5421 59.6538 54.9614V50.269Z" stroke="black" stroke-width="2" stroke-miterlimit="10" stroke-linecap="round" stroke-linejoin="round"/>
<path d="M1 24.4617H8.97692" stroke="black" stroke-width="2" stroke-miterlimit="10" stroke-linecap="round" stroke-linejoin="round"/>
<path d="M54.9615 24.4617H62" stroke="black" stroke-width="2" stroke-miterlimit="10" stroke-linecap="round" stroke-linejoin="round"/>
<path d="M43.2308 50.2694H19.7692L23.0538 43.4655C23.7577 41.8232 25.4 40.8848 27.2769 40.8848H35.4885C37.3654 40.8848 39.0077 41.8232 39.7115 43.4655L43.2308 50.2694Z" stroke="black" stroke-width="2" stroke-miterlimit="10" stroke-linecap="round" stroke-linejoin="round"/>
<path d="M8.03847 38.5386H15.0769" stroke="black" stroke-width="2" stroke-miterlimit="10" stroke-linecap="round" stroke-linejoin="round"/>
<path d="M47.9231 38.5386H54.9615" stroke="black" stroke-width="2" stroke-miterlimit="10" stroke-linecap="round" stroke-linejoin="round"/>
<path d="M40.8846 10.3846H22.1154L23.9923 2.87692C24.2269 1.93846 25.1654 1 26.3385 1H36.6615C37.8346 1 38.7731 1.70385 39.0077 2.87692L40.8846 10.3846Z" stroke="black" stroke-width="2" stroke-miterlimit="10" stroke-linecap="round" stroke-linejoin="round"/>
</svg>
